:version 1.10
:name ASF
:units
  mass 1
  length 1
  angle deg
:documentation
  ASF file generated by Kaydara
:root
  axis xyz
  order  tx ty tz rx ry rz
  position 0 0 0
  orientation 0 0 0
:bonedata
  begin
    id 1
    name abdomenDummy
    direction 1 -1.27917e-005 -1.26829e-007
    length 1.79048
    axis 0 0 0 xyz
  end
  begin
    id 2
    name abdomen
    direction 0.987238 0.159249 -9.68575e-008
    length 8.61378
    axis 2.73208e-005 5.54953e-006 9.16328 xyz
    dof rx ry rz
  end
  begin
    id 3
    name chest
    direction 0 0 0
    length 0
    axis 2.65071e-005 8.63688e-006 2.59796 xyz
    dof rx ry rz
  end
  begin
    id 4
    name neckDummyDummy
    direction 0.998972 0.0453274 -1.50742e-007
    length 9.56202
    axis 2.65071e-005 8.63688e-006 2.59796 xyz
  end
  begin
    id 5
    name neckDummy
    direction 0.99977 0.0214525 -1.61748e-007
    length 1.93574
    axis 2.62932e-005 9.26758e-006 1.22924 xyz
    dof rx ry rz
  end
  begin
    id 6
    name neck
    direction 0.99928 -0.0379406 -1.88707e-007
    length 3.70367
    axis 2.56966e-005 1.08122e-005 -2.17436 xyz
    dof rx ry rz
  end
  begin
    id 7
    name head
    direction 0.992648 -0.121037 -2.25408e-007
    length 6.35158
    axis 2.47068e-005 1.29149e-005 -6.95196 xyz
    dof rx ry rz
  end
  begin
    id 8
    name figureHair
    direction -0.86681 -0.498639 -7.83376e-008
    length 8.29884
    axis -2.7515e-005 4.48842e-006 -150.09 xyz
    dof rx ry rz
  end
  begin
    id 9
    name lCollarDummy
    direction 0.994611 0.0451299 -0.0933417
    length 9.60395
    axis 2.65071e-005 8.63688e-006 2.59796 xyz
  end
  begin
    id 10
    name lCollar
    direction 0.0384146 0.00127577 -0.999261
    length 6.95318
    axis 90.4899 87.7973 1.90202 xyz
    dof rx ry rz
  end
  begin
    id 11
    name lShldr
    direction -0.030648 0.0920515 -0.995282
    length 9.61158
    axis -161.793 84.4324 108.415 xyz
    dof rx ry rz
  end
  begin
    id 12
    name lForeArm
    direction 0.000163956 -0.0977586 -0.99521
    length 8.6068
    axis 0.134773 84.3899 -89.8525 xyz
    dof rx ry rz
  end
  begin
    id 13
    name lHand
    direction -0.0190533 -0.1444 -0.989336
    length 7.61479
    axis -7.3729 81.6249 -97.517 xyz
    dof rx ry rz
  end
  begin
    id 14
    name rCollarDummy
    direction 0.994871 0.0442627 0.0909555
    length 9.60761
    axis 2.65071e-005 8.63688e-006 2.59796 xyz
  end
  begin
    id 15
    name rCollar
    direction 0.0334251 -4.74072e-007 0.999441
    length 6.97058
    axis -178.152 -88.0845 -0.000674207 xyz
    dof rx ry rz
  end
  begin
    id 16
    name rShldr
    direction -0.026922 0.0719509 0.997045
    length 9.60913
    axis 71.2822 -85.594 110.514 xyz
    dof rx ry rz
  end
  begin
    id 17
    name rForeArm
    direction 0.00134679 -0.118986 0.992895
    length 8.57176
    axis -88.7923 -83.1659 -89.3516 xyz
    dof rx ry rz
  end
  begin
    id 18
    name rHand
    direction -0.0185183 -0.0768601 0.99687
    length 7.69687
    axis -74.5596 -85.4655 -103.546 xyz
    dof rx ry rz
  end
  begin
    id 19
    name lThighDummy
    direction -0.236086 -0.0385456 -0.970967
    length 4.99155
    axis 0 0 0 xyz
  end
  begin
    id 20
    name lThigh
    direction -0.993968 0.0148998 -0.108653
    length 13.572
    axis -91.4001 6.23768 179.141 xyz
    dof rx ry rz
  end
  begin
    id 21
    name lShin
    direction -0.992341 0.0904576 -0.0841193
    length 18.5862
    axis -91.4558 4.82538 174.792 xyz
    dof rx ry rz
  end
  begin
    id 22
    name lFoot
    direction 0.0209381 -0.999771 -0.00453005
    length 8.44474
    axis 4.86759 0.259522 -88.8001 xyz
    dof rx ry rz
  end
  begin
    id 23
    name rThighDummy
    direction -0.236086 -0.0385456 0.970967
    length 4.99155
    axis 0 0 0 xyz
  end
  begin
    id 24
    name rThigh
    direction -0.993968 0.0148995 0.108653
    length 13.5721
    axis -89.7059 -6.2377 179.141 xyz
    dof rx ry rz
  end
  begin
    id 25
    name rShin
    direction -0.9925 0.0899962 0.0827255
    length 18.6716
    axis -89.2745 -4.74775 174.819 xyz
    dof rx ry rz
  end
  begin
    id 26
    name rFoot
    direction 0.0301721 -0.999545 9.70865e-005
    length 8.45013
    axis -2.50066e-005 -0.00555246 -88.271 xyz
    dof rx ry rz
  end
:hierarchy
  begin
    root abdomenDummy lThighDummy rThighDummy
    abdomenDummy abdomen
    abdomen chest
    chest neckDummyDummy lCollarDummy rCollarDummy
    neckDummyDummy neckDummy
    neckDummy neck
    neck head
    head figureHair
    lCollarDummy lCollar
    lCollar lShldr
    lShldr lForeArm
    lForeArm lHand
    rCollarDummy rCollar
    rCollar rShldr
    rShldr rForeArm
    rForeArm rHand
    lThighDummy lThigh
    lThigh lShin
    lShin lFoot
    rThighDummy rThigh
    rThigh rShin
    rShin rFoot
  end

:SAMPLES-PER-SECOND 25
:FULLY-SPECIFIED
:DEGREES
408
root  5.35481 36.3231 -5.33445 179.558 0.603867 92.376
abdomen  0.706656 -3.37234 -3.9706
chest  1.37206 3.68379 -10.2704
neckDummy  9.09964e-021 0 8.72668e-016
neck  10.8951 13.3047 -23.3788
head  9.87616 4.29217 -13.2794
figureHair  0 1.51661e-021 -9.5315e-016
lCollar  -5.15695e-016 -6.42944e-016 -7.59357e-014
lShldr  -2.68156 15.7828 -70.634
lForeArm  44.2787 -74.9763 6.44968
lHand  0.254698 0.195082 5.2986
rCollar  1.7976e-016 -5.12864e-014 1.62755e-015
rShldr  -26.0915 69.013 -11.6502
rForeArm  10.0739 1.08552 24.7423
rHand  0.665259 -16.0892 0.184165
lThigh  -0.55631 -15.0798 6.33515
lShin  4.34732 14.0205 6.35627
lFoot  10.6877 -0.904884 -3.05821
rThigh  11.9504 -19.975 2.93739
rShin  4.14231 22.9685 1.5065
rFoot  -8.30818 1.52055 3.18332
409
root  5.3193 36.1924 -5.6183 178.418 -0.310959 92.2551
abdomen  1.41096 -4.42246 -4.0634
chest  2.22355 4.3263 -10.623
neckDummy  9.09964e-021 0 8.72668e-016
neck  10.9232 12.8811 -23.54
head  9.96532 4.37241 -12.9893
figureHair  0 1.51661e-021 -9.5315e-016
lCollar  -5.15695e-016 -6.42944e-016 -7.59357e-014
lShldr  -3.20085 15.8117 -70.6005
lForeArm  44.5288 -74.7967 6.35175
lHand  0.254698 0.195082 5.2986
rCollar  1.7976e-016 -5.12864e-014 1.62755e-015
rShldr  -23.9086 68.6001 -9.08016
rForeArm  10.4408 1.0971 23.7714
rHand  0.67607 -16.0903 0.114622
lThigh  -1.21175 -14.4733 5.94293
lShin  1.95181 13.7988 6.32212
lFoot  14.3846 -1.33017 -2.2615
rThigh  11.9642 -20.1986 4.61923
rShin  3.01038 23.5007 1.14219
rFoot  -8.46001 1.58703 3.4537
410
root  5.31086 36.0993 -5.89974 177.636 -1.3071 92.2871
abdomen  2.0473 -4.51697 -4.17345
chest  2.83045 3.89802 -10.5995
neckDummy  9.09964e-021 0 8.72668e-016
neck  10.8527 12.4105 -23.921
head  9.96634 4.59075 -12.9792
figureHair  0 1.51661e-021 -9.5315e-016
lCollar  -5.15695e-016 -6.42944e-016 -7.59357e-014
lShldr  -3.73014 16.2779 -70.854
lForeArm  44.7702 -74.6336 6.26379
lHand  0.254698 0.195082 5.2986
rCollar  1.7976e-016 -5.12864e-014 1.62755e-015
rShldr  -22.1267 68.1853 -6.76754
rForeArm  10.5724 1.10357 23.2348
rHand  0.749565 -15.6371 -0.47887
lThigh  0.489023 -14.8091 5.41431
lShin  -4.27678 15.2373 6.18838
lFoot  20.918 -2.25162 -0.568248
rThigh  11.7131 -20.0953 6.29771
rShin  2.42245 23.2516 1.05303
rFoot  -8.2375 1.56738 3.54658
411
root  5.32466 36.022 -6.17794 177.831 -2.23883 92.4762
abdomen  2.4288 -3.4391 -4.15928
chest  2.98398 2.37001 -10.5808
neckDummy  9.09964e-021 0 8.72668e-016
neck  10.859 11.6581 -23.9914
head  10.0146 4.9406 -12.9619
figureHair  0 1.51661e-021 -9.5315e-016
lCollar  -5.15695e-016 -6.42944e-016 -7.59357e-014
lShldr  -4.02881 16.8205 -70.8948
lForeArm  44.9098 -74.6213 6.258
lHand  0.254698 0.195082 5.2986
rCollar  1.7976e-016 -5.12864e-014 1.62755e-015
rShldr  -20.5937 68.3873 -5.85277
rForeArm  10.5653 1.09799 23.7731
rHand  0.792603 -15.7082 -0.735311
lThigh  5.18555 -16.2116 5.63926
lShin  -8.94302 17.657 5.84914
lFoot  23.1837 -2.73369 0.556765
rThigh  11.6394 -19.8438 7.5153
rShin  2.70522 22.7538 1.45851
rFoot  -7.73101 1.53739 3.8608
412
root  5.32535 35.9683 -6.43334 178.372 -2.95706 92.7834
abdomen  2.69181 -2.2698 -3.76624
chest  3.03341 1.02647 -10.86
neckDummy  9.09964e-021 0 8.72668e-016
neck  10.8876 10.7652 -23.8857
head  10.0876 5.13504 -12.7676
figureHair  0 1.51661e-021 -9.5315e-016
lCollar  -5.15695e-016 -6.42944e-016 -7.59357e-014
lShldr  -3.87543 17.1047 -70.4296
lForeArm  44.7694 -74.6449 6.27044
lHand  0.254698 0.195082 5.2986
rCollar  1.7976e-016 -5.12864e-014 1.62755e-015
rShldr  -19.8393 69.2624 -6.30258
rForeArm  10.5322 1.08629 24.833
rHand  0.7409 -16.2597 -0.239822
lThigh  7.70028 -17.5809 6.88847
lShin  -9.72683 19.181 5.15392
lFoot  20.9424 -2.49277 0.700747
rThigh  11.899 -19.6076 8.19608
rShin  3.04652 22.2647 2.08313
rFoot  -6.73431 1.45538 4.38129
413
root  5.29367 35.942 -6.62359 178.325 -3.23427 93.2113
abdomen  3.13616 -1.62232 -3.18229
chest  3.41151 0.669448 -10.9583
neckDummy  9.09964e-021 0 8.72668e-016
neck  10.8493 10.0197 -24.0408
head  10.12 5.0811 -12.6624
figureHair  0 1.51661e-021 -9.5315e-016
lCollar  -5.15695e-016 -6.42944e-016 -7.59357e-014
lShldr  -3.57497 17.4159 -69.8593
lForeArm  44.757 -74.5066 6.1993
lHand  0.254698 0.195082 5.2986
rCollar  1.7976e-016 -5.12864e-014 1.62755e-015
rShldr  -21.0026 70.173 -7.63817
rForeArm  10.1184 1.07694 25.663
rHand  0.70304 -16.0777 -0.0585797
lThigh  6.73075 -17.9854 7.68297
lShin  -9.30217 19.1457 5.22581
lFoot  20.2163 -2.41553 0.759965
rThigh  12.2143 -19.7176 8.53821
rShin  2.64634 22.0719 2.30715
rFoot  -5.58749 1.32537 4.79775
414
root  5.24972 35.9249 -6.74277 177.928 -3.25845 93.5694
abdomen  3.71313 -1.28104 -2.87939
chest  3.99598 0.794983 -10.6316
neckDummy  9.09964e-021 0 8.72668e-016
neck  10.7651 9.55482 -24.2718
head  10.0928 4.85812 -12.7293
figureHair  0 1.51661e-021 -9.5315e-016
lCollar  -5.15695e-016 -6.42944e-016 -7.59357e-014
lShldr  -3.65905 17.9637 -69.7232
lForeArm  44.9197 -74.2948 6.08928
lHand  0.254698 0.195082 5.2986
rCollar  1.7976e-016 -5.12864e-014 1.62755e-015
rShldr  -23.347 70.7437 -8.875
rForeArm  9.04556 1.07216 26.0967
rHand  0.754099 -15.1249 -0.6729
lThigh  7.20202 -17.7864 7.39753
lShin  -10.6047 18.8354 5.58987
lFoot  21.7363 -2.66358 1.07924
rThigh  12.2441 -20.0384 8.78673
rShin  2.09443 22.1528 2.18338
rFoot  -4.82916 1.23982 5.11001
415
root  5.20966 35.8982 -6.82835 177.664 -3.43042 93.6854
abdomen  4.19369 -1.13224 -2.93314
chest  4.48326 0.81139 -10.3713
neckDummy  9.09964e-021 0 8.72668e-016
neck  10.65 9.2762 -24.0987
head  9.98727 4.51174 -12.7377
figureHair  0 1.51661e-021 -9.5315e-016
lCollar  -5.15695e-016 -6.42944e-016 -7.59357e-014
lShldr  -4.13525 18.4983 -70.001
lForeArm  44.8788 -74.2176 6.05104
lHand  0.254698 0.195082 5.2986
rCollar  1.7976e-016 -5.12864e-014 1.62755e-015
rShldr  -24.7132 71.1845 -8.89307
rForeArm  7.89749 1.07121 26.2087
rHand  0.799291 -14.4501 -1.21109
lThigh  9.63475 -17.7198 7.08726
lShin  -12.624 19.1978 5.53288
lFoot  22.682 -2.82979 1.31174
rThigh  12.0774 -20.0831 9.17579
rShin  1.93879 22.1932 2.1408
rFoot  -4.5135 1.21778 5.35799
416
root  5.17279 35.8609 -6.90758 177.528 -3.79912 93.73
abdomen  4.58248 -1.02246 -2.95691
chest  4.86341 0.707408 -10.3086
neckDummy  9.09964e-021 0 8.72668e-016
neck  10.4813 8.81974 -23.6719
head  9.81098 4.31162 -12.6921
figureHair  0 1.51661e-021 -9.5315e-016
lCollar  -5.15695e-016 -6.42944e-016 -7.59357e-014
lShldr  -4.52281 18.9317 -70.2449
lForeArm  44.8775 -74.2554 6.07007
lHand  0.254698 0.195082 5.2986
rCollar  1.7976e-016 -5.12864e-014 1.62755e-015
rShldr  -24.8057 71.7331 -8.11794
rForeArm  7.36992 1.07271 26.1168
rHand  0.795778 -14.3145 -1.23956
lThigh  12.2928 -18.0555 7.11195
lShin  -15.1809 20.1799 4.94836
lFoot  23.0832 -2.91353 1.46755
rThigh  12.088 -20.0762 9.72109
rShin  1.75301 22.2444 2.10146
rFoot  -4.71532 1.254 5.37105
417
root  5.14339 35.8076 -6.97049 177.12 -4.10043 94.0245
abdomen  5.03207 -0.735061 -2.80417
chest  5.28595 0.562176 -10.0425
neckDummy  9.09964e-021 0 8.72668e-016
neck  10.3057 8.09271 -23.3758
head  9.64256 4.45448 -12.7789
figureHair  0 1.51661e-021 -9.5315e-016
lCollar  -5.15695e-016 -6.42944e-016 -7.59357e-014
lShldr  -4.62974 19.4614 -70.2276
lForeArm  45.0826 -74.2595 6.07209
lHand  0.254698 0.195082 5.2986
rCollar  1.7976e-016 -5.12864e-014 1.62755e-015
rShldr  -24.8587 72.2672 -7.72688
rForeArm  7.22228 1.07208 26.1996
rHand  0.78143 -14.2891 -1.14951
lThigh  15.9925 -18.7177 6.88783
lShin  -19.4825 21.5773 3.92946
lFoot  23.8045 -3.05921 1.7104
rThigh  12.1629 -20.579 10.3551
rShin  1.29679 22.6327 1.80542
rFoot  -5.4675 1.36315 5.22667
418
root  5.12452 35.7378 -7.00605 176.399 -4.44014 94.2782
abdomen  5.51797 -0.524801 -2.78758
chest  5.75512 0.449187 -9.63966
neckDummy  9.09964e-021 0 8.72668e-016
neck  10.2255 7.55366 -23.0829
head  9.56068 4.5468 -12.9338
figureHair  0 1.51661e-021 -9.5315e-016
lCollar  -5.15695e-016 -6.42944e-016 -7.59357e-014
lShldr  -4.73371 20.0511 -70.1251
lForeArm  45.0675 -74.1801 6.03257
lHand  0.254698 0.195082 5.2986
rCollar  1.7976e-016 -5.12864e-014 1.62755e-015
rShldr  -24.7291 72.5553 -7.28419
rForeArm  7.02567 1.06671 26.6711
rHand  0.790178 -14.2281 -1.23345
lThigh  20.4503 -19.3541 6.36576
lShin  -24.567 23.2644 2.70939
lFoot  24.92 -3.29056 2.08212
rThigh  12.0365 -21.2201 11.1263
rShin  0.696756 23.1927 1.3419
rFoot  -6.2268 1.48136 5.15008
419
root  5.1068 35.6555 -7.01798 175.648 -4.91248 94.2645
abdomen  5.85991 -0.603495 -3.06874
chest  6.11608 0.473921 -9.40218
neckDummy  9.09964e-021 0 8.72668e-016
neck  10.2517 7.27423 -22.6853
head  9.57745 4.41904 -12.9524
figureHair  0 1.51661e-021 -9.5315e-016
lCollar  -5.15695e-016 -6.42944e-016 -7.59357e-014
lShldr  -5.07288 20.5222 -70.1094
lForeArm  44.9881 -74.0328 5.96006
lHand  0.254698 0.195082 5.2986
rCollar  1.7976e-016 -5.12864e-014 1.62755e-015
rShldr  -23.6869 72.6387 -5.88872
rForeArm  7.03281 1.05961 27.275
rHand  0.812919 -14.1965 -1.40443
lThigh  23.4635 -19.7214 5.78978
lShin  -28.233 25.0553 2.02839
lFoot  26.5686 -3.64073 2.60178
rThigh  12.1404 -21.5276 11.9382
rShin  -0.222297 23.8009 0.81688
rFoot  -6.68884 1.5616 5.16325
